<svg width="32" height="32" viewBox="0 0 512 512" xmlns="http://www.w3.org/2000/svg"><path fill="#FFF" d="M462 280.72v-49.44l-46.414-16.48c-3.903-15.098-9.922-29.343-17.675-42.447l.063-.064 21.168-44.473-34.96-34.96-44.471 21.167-.064.064c-13.104-7.753-27.352-13.772-42.447-17.673L280.72 50h-49.44L214.8 96.415c-15.096 3.9-29.343 9.919-42.447 17.675l-.064-.066-44.473-21.167-34.96 34.96 21.167 44.473.066.064c-7.755 13.104-13.774 27.352-17.675 42.447L50 231.28v49.44l46.415 16.48c3.9 15.096 9.921 29.343 17.675 42.447l-.066.064-21.167 44.471 34.96 34.96 44.473-21.168.064-.063c13.104 7.753 27.352 13.771 42.447 17.675L231.28 462h49.44l16.48-46.414c15.096-3.903 29.343-9.922 42.447-17.675l.064.063 44.471 21.168 34.96-34.96-21.168-44.471-.063-.064c7.753-13.104 13.771-27.352 17.675-42.447L462 280.72zM256 338.4c-45.509 0-82.4-36.892-82.4-82.4 0-45.509 36.891-82.4 82.4-82.4 45.509 0 82.4 36.891 82.4 82.4 0 45.509-36.891 82.4-82.4 82.4z"/></svg>
